<svg width="1100" height="700" viewBox="0 0 1100 700" fill="none" xmlns="http://www.w3.org/2000/svg">
  <defs>
    <linearGradient id="paper" x1="150" y1="40" x2="960" y2="640" gradientUnits="userSpaceOnUse">
      <stop stop-color="#FFFFFF"/>
      <stop offset="1" stop-color="#F5F7FB"/>
    </linearGradient>
    <linearGradient id="pay" x1="0" y1="0" x2="1" y2="1">
      <stop stop-color="#111827"/>
      <stop offset="1" stop-color="#0EA5E9"/>
    </linearGradient>
  </defs>
  <rect x="60" y="40" width="980" height="620" rx="32" fill="url(#paper)" stroke="#E5E7EB" stroke-width="2"/>
  <rect x="120" y="96" width="180" height="36" rx="12" fill="#0EA5E9" fill-opacity="0.12"/>
  <rect x="140" y="108" width="120" height="12" rx="6" fill="#0EA5E9"/>

  <rect x="120" y="164" width="220" height="16" rx="8" fill="#111827" fill-opacity="0.7"/>
  <rect x="120" y="188" width="180" height="12" rx="6" fill="#94A3B8"/>

  <rect x="760" y="96" width="240" height="120" rx="20" fill="#F8FAFC"/>
  <rect x="790" y="128" width="120" height="14" rx="7" fill="#0F172A" fill-opacity="0.65"/>
  <rect x="790" y="154" width="180" height="12" rx="6" fill="#CBD5E1"/>

  <rect x="120" y="250" width="860" height="260" rx="20" fill="white" stroke="#E5E7EB" stroke-width="2"/>
  <rect x="144" y="276" width="140" height="14" rx="7" fill="#0F172A" fill-opacity="0.65"/>
  <rect x="320" y="276" width="100" height="14" rx="7" fill="#0F172A" fill-opacity="0.35"/>
  <rect x="460" y="276" width="120" height="14" rx="7" fill="#0F172A" fill-opacity="0.35"/>
  <rect x="620" y="276" width="140" height="14" rx="7" fill="#0F172A" fill-opacity="0.35"/>
  <rect x="800" y="276" width="140" height="14" rx="7" fill="#0F172A" fill-opacity="0.35"/>

  <rect x="132" y="310" width="816" height="52" rx="12" fill="#F8FAFC"/>
  <rect x="152" y="330" width="180" height="12" rx="6" fill="#0F172A" fill-opacity="0.55"/>
  <rect x="360" y="330" width="70" height="12" rx="6" fill="#CBD5E1"/>
  <rect x="472" y="330" width="92" height="12" rx="6" fill="#CBD5E1"/>
  <rect x="632" y="330" width="110" height="12" rx="6" fill="#CBD5E1"/>
  <rect x="812" y="330" width="120" height="12" rx="6" fill="#0EA5E9"/>

  <rect x="132" y="374" width="816" height="52" rx="12" fill="#F8FAFC"/>
  <rect x="152" y="394" width="180" height="12" rx="6" fill="#0F172A" fill-opacity="0.55"/>
  <rect x="360" y="394" width="70" height="12" rx="6" fill="#CBD5E1"/>
  <rect x="472" y="394" width="92" height="12" rx="6" fill="#CBD5E1"/>
  <rect x="632" y="394" width="110" height="12" rx="6" fill="#CBD5E1"/>
  <rect x="812" y="394" width="120" height="12" rx="6" fill="#0EA5E9" fill-opacity="0.8"/>

  <rect x="132" y="438" width="816" height="52" rx="12" fill="#F8FAFC"/>
  <rect x="152" y="458" width="180" height="12" rx="6" fill="#0F172A" fill-opacity="0.55"/>
  <rect x="360" y="458" width="70" height="12" rx="6" fill="#CBD5E1"/>
  <rect x="472" y="458" width="92" height="12" rx="6" fill="#CBD5E1"/>
  <rect x="632" y="458" width="110" height="12" rx="6" fill="#CBD5E1"/>
  <rect x="812" y="458" width="120" height="12" rx="6" fill="#0EA5E9" fill-opacity="0.55"/>

  <rect x="120" y="544" width="340" height="64" rx="18" fill="#111827" fill-opacity="0.9"/>
  <rect x="144" y="568" width="220" height="12" rx="6" fill="white" fill-opacity="0.9"/>

  <rect x="492" y="544" width="488" height="64" rx="18" fill="url(#pay)"/>
  <rect x="520" y="564" width="140" height="12" rx="6" fill="white" fill-opacity="0.85"/>
  <rect x="520" y="584" width="240" height="12" rx="6" fill="white" fill-opacity="0.65"/>
  <rect x="824" y="560" width="130" height="32" rx="12" fill="#0EA5E9" fill-opacity="0.25"/>
</svg>
