<svg width="1100" height="680" viewBox="0 0 1100 680" fill="none" xmlns="http://www.w3.org/2000/svg">
  <defs>
    <linearGradient id="card" x1="0" y1="0" x2="1" y2="1">
      <stop stop-color="#0EA5E9"/>
      <stop offset="1" stop-color="#111827"/>
    </linearGradient>
    <linearGradient id="panel" x1="220" y1="120" x2="880" y2="560" gradientUnits="userSpaceOnUse">
      <stop stop-color="#F7FBFF"/>
      <stop offset="1" stop-color="#EEF1F7"/>
    </linearGradient>
  </defs>
  <rect x="60" y="60" width="980" height="560" rx="36" fill="url(#panel)" stroke="#E5E7EB" stroke-width="2"/>

  <rect x="120" y="120" width="360" height="210" rx="24" fill="white" stroke="#E5E7EB" stroke-width="2"/>
  <rect x="152" y="152" width="160" height="14" rx="7" fill="#111827" fill-opacity="0.7"/>
  <rect x="152" y="178" width="220" height="12" rx="6" fill="#CBD5E1"/>
  <rect x="152" y="206" width="120" height="12" rx="6" fill="#94A3B8"/>
  <rect x="152" y="238" width="256" height="96" rx="16" fill="#F8FAFC"/>
  <rect x="172" y="260" width="180" height="14" rx="7" fill="#0EA5E9" fill-opacity="0.2"/>
  <rect x="172" y="288" width="120" height="12" rx="6" fill="#CBD5E1"/>
  <rect x="172" y="314" width="200" height="12" rx="6" fill="#CBD5E1"/>

  <rect x="520" y="120" width="420" height="120" rx="24" fill="white" stroke="#E5E7EB" stroke-width="2"/>
  <rect x="552" y="150" width="240" height="18" rx="9" fill="#0EA5E9" fill-opacity="0.18"/>
  <rect x="552" y="180" width="320" height="14" rx="7" fill="#111827" fill-opacity="0.55"/>

  <rect x="520" y="260" width="420" height="180" rx="24" fill="white" stroke="#E5E7EB" stroke-width="2"/>
  <rect x="548" y="290" width="100" height="12" rx="6" fill="#94A3B8"/>
  <rect x="680" y="290" width="180" height="12" rx="6" fill="#0EA5E9" fill-opacity="0.6"/>
  <rect x="548" y="320" width="340" height="12" rx="6" fill="#CBD5E1"/>
  <rect x="548" y="348" width="240" height="12" rx="6" fill="#E2E8F0"/>
  <rect x="548" y="376" width="120" height="12" rx="6" fill="#E2E8F0"/>
  <rect x="820" y="346" width="92" height="38" rx="12" fill="#0EA5E9" fill-opacity="0.2"/>

  <rect x="120" y="360" width="360" height="190" rx="24" fill="white" stroke="#E5E7EB" stroke-width="2"/>
  <rect x="152" y="392" width="200" height="14" rx="7" fill="#111827" fill-opacity="0.7"/>
  <rect x="152" y="420" width="240" height="12" rx="6" fill="#CBD5E1"/>
  <rect x="152" y="448" width="110" height="12" rx="6" fill="#E2E8F0"/>
  <rect x="152" y="482" width="256" height="52" rx="16" fill="url(#card)"/>
  <rect x="176" y="500" width="120" height="12" rx="6" fill="white" fill-opacity="0.9"/>
  <rect x="312" y="500" width="72" height="12" rx="6" fill="white" fill-opacity="0.6"/>

  <rect x="520" y="468" width="420" height="82" rx="16" fill="#0EA5E9" fill-opacity="0.12" stroke="#BAE6FD" stroke-width="2" stroke-dasharray="8 8"/>
  <rect x="548" y="496" width="120" height="12" rx="6" fill="#0EA5E9" fill-opacity="0.7"/>
  <rect x="692" y="496" width="200" height="12" rx="6" fill="#0EA5E9" fill-opacity="0.4"/>
</svg>
